# This file uses centimeters as units for non-parametric coordinates.

mtllib TJ_hallway_opens_door.mtl
g default
v -4.028404 0.173617 10.532583
v -4.028404 0.173617 9.260711
v -4.028404 3.505471 10.532583
v -4.028404 3.505471 9.260711
v -3.940059 1.749179 9.400650
v -3.940059 1.749179 9.507270
v -3.940059 1.917043 9.400650
v -3.940059 1.917043 9.507270
v -3.882517 1.749179 9.400650
v -3.882517 1.749179 9.507270
v -3.882517 1.917043 9.400650
v -3.882517 1.917043 9.507270
v -3.882517 1.774358 9.416643
v -3.882517 1.774358 9.491278
v -3.882517 1.891863 9.416643
v -3.882517 1.891863 9.491278
v -3.825380 1.789589 9.416643
v -3.825380 1.789589 9.491278
v -3.825380 1.877241 9.416772
v -3.825380 1.876936 9.491406
v -3.870650 1.809724 9.491278
v -3.870650 1.856498 9.491278
v -3.837248 1.809724 9.491278
v -3.837248 1.856498 9.491278
v -3.908368 1.809724 9.668794
v -3.908395 1.855890 9.668836
v -3.879785 1.809116 9.685524
v -3.879882 1.855890 9.685677
v -3.870650 1.809724 9.604305
v -3.837248 1.809724 9.604305
v -3.837248 1.856498 9.604305
v -3.870650 1.856498 9.604305
v -3.873981 1.809724 9.621860
v -3.873981 1.856498 9.621860
v -3.844442 1.856498 9.636953
v -3.844442 1.809724 9.636953
v -3.942919 0.164042 10.529087
v -3.942919 0.164042 9.267759
v -3.942919 3.508612 9.267759
v -3.942919 3.508612 10.529087
vt 1.065601 0.932630
vt 1.061247 0.746655
vt 1.465023 0.923279
vt 1.460669 0.737304
vt 1.855811 0.544778
vt 1.895494 0.554224
vt 1.862427 0.556727
vt 1.814621 0.549060
vt 1.562619 0.556764
vt 1.719413 0.556764
vt 1.710402 0.782738
vt 1.698123 0.774854
vt 1.740541 0.952372
vt 1.707006 0.802010
vt 1.581824 0.952372
vt 1.694690 0.794142
vt 1.361990 0.267789
vt 1.420282 0.214563
vt 1.446457 0.253652
vt 1.396413 0.236398
vt 1.468361 0.268960
vt 1.433806 0.300292
vt 1.410189 0.322533
vt 1.383701 0.283130
vt 1.435437 0.260619
vt 1.404660 0.247950
vt 1.425504 0.288722
vt 1.394694 0.276102
vt 1.937943 0.957378
vt 1.888112 0.957432
vt 1.944761 0.559840
vt 1.842865 0.956089
vt 1.793142 0.954687
vt 1.824267 0.444771
vt 1.824261 0.444913
vt 1.824136 0.448354
vt 1.824158 0.447725
vt 1.811127 0.404265
vt 1.851937 0.393661
vt 1.842141 0.432232
vt 1.824509 0.438188
vt 1.847704 0.518146
vt 1.819796 0.513459
vt 1.227283 0.125987
vt 1.223568 0.107685
vt 1.239733 0.107243
vt 1.242300 0.119561
vt 1.098804 0.029106
vt 1.128584 0.034163
vt 1.822879 0.497705
vt 1.822070 0.480201
vt 1.823579 0.462808
vt 1.823598 0.464381
vt 1.148000 0.254162
vt 1.173589 0.235250
vt 1.178223 0.125236
vt 1.081244 0.065436
vt 1.106988 0.229038
vt 1.180726 0.127523
vt 1.378346 0.072540
vt 1.381052 0.082540
vt 1.279268 0.126285
vt 1.267916 0.083948
vt 1.874209 0.062537
vt 1.960092 0.062537
vt 1.960092 0.336886
vt 1.874209 0.336886
vt 1.624967 0.069202
vt 1.714121 0.069202
vt 1.714121 0.330221
vt 1.624967 0.330221
vt 1.742175 0.077815
vt 1.839252 0.077815
vt 1.839252 0.332145
vt 1.742175 0.332145
vt 1.509572 0.056707
vt 1.587178 0.056707
vt 1.587178 0.321644
vt 1.509572 0.321644
vn -1.000000 0.000000 0.000000
vn -1.000000 0.000000 0.000000
vn -1.000000 0.000000 0.000000
vn -1.000000 0.000000 0.000000
vn 1.000000 -0.000000 0.000000
vn 1.000000 -0.000000 0.000000
vn 1.000000 -0.000000 0.000000
vn 1.000000 -0.000000 0.000000
vn 0.999999 -0.000907 0.001392
vn 0.999998 -0.001782 -0.000266
vn 0.999981 -0.001292 -0.006114
vn 0.999998 -0.000610 0.001853
vn 0.999998 0.001775 -0.000264
vn 0.999981 0.001288 -0.006098
vn 0.999999 0.000908 0.001385
vn 0.999998 0.000608 0.001851
vn 0.000000 -1.000000 0.000000
vn 0.000000 -1.000000 0.000000
vn 0.000000 -1.000000 0.000000
vn 0.000000 -1.000000 0.000000
vn 0.000000 0.000000 -1.000000
vn 0.000000 0.000000 -1.000000
vn 0.000000 0.000000 -1.000000
vn 0.000000 0.000000 -1.000000
vn 0.000000 1.000000 0.000000
vn 0.000000 1.000000 0.000000
vn 0.000000 1.000000 0.000000
vn 0.000000 1.000000 0.000000
vn 0.000000 0.000000 1.000000
vn 0.000000 0.000000 1.000000
vn 0.000000 0.000000 1.000000
vn 0.000000 0.000000 1.000000
vn 1.000000 0.000003 0.000000
vn 1.000000 0.000003 0.000000
vn 1.000000 0.000002 0.000000
vn 1.000000 0.000002 0.000000
vn 1.000000 -0.000003 0.000000
vn 1.000000 -0.000002 0.000000
vn 1.000000 -0.000003 0.000000
vn 1.000000 -0.000002 0.000000
vn 0.257565 -0.966261 0.000000
vn 0.257565 -0.966261 0.000000
vn 0.257565 -0.966261 0.000000
vn 0.257565 -0.966261 0.000000
vn 0.001122 0.000630 -0.999999
vn 0.001122 0.000630 -0.999999
vn 0.001122 0.000630 -0.999999
vn 0.001122 0.000630 -0.999999
vn 0.250343 0.968155 0.001979
vn 0.250343 0.968155 0.001979
vn 0.250343 0.968155 0.001979
vn 0.250343 0.968155 0.001979
vn -0.506868 -0.002491 0.862020
vn -0.506868 -0.002491 0.862020
vn -0.506868 -0.002491 0.862020
vn -0.506867 -0.002491 0.862020
vn -0.001450 -0.001837 0.999997
vn 0.000018 0.000000 1.000000
vn 0.000011 0.000000 1.000000
vn -0.000845 -0.001071 0.999999
vn -0.001107 -0.000197 0.999999
vn -0.002388 -0.000421 0.999997
vn -0.002555 -0.002027 0.999995
vn -0.003417 -0.001709 0.999993
vn -0.999675 0.000000 -0.025504
vn -0.999675 0.000000 -0.025504
vn -0.863455 0.000027 -0.504426
vn -0.863720 0.000027 -0.503972
vn 0.000000 -1.000000 -0.000000
vn 0.000000 -1.000000 -0.000000
vn -0.003602 -0.999967 -0.007229
vn -0.003388 -0.999971 -0.006801
vn 0.998783 0.000000 0.049327
vn 0.998783 0.000000 0.049327
vn 0.886100 -0.000087 0.463494
vn 0.885541 -0.000088 0.464561
vn 0.000000 1.000000 0.000000
vn 0.000000 1.000000 0.000000
vn -0.003397 0.999975 0.006179
vn -0.003610 0.999972 0.006567
vn 0.000000 -1.000000 0.000000
vn 0.000000 -1.000000 0.000000
vn 1.000000 0.000000 0.000000
vn 1.000000 0.000000 0.000000
vn 0.000000 1.000000 0.000000
vn 0.000000 1.000000 0.000000
vn -1.000000 0.000000 0.000000
vn -1.000000 0.000000 0.000000
vn -0.806679 0.000035 -0.590990
vn -0.806679 0.000035 -0.590990
vn -0.004991 0.999946 0.009078
vn -0.004991 0.999946 0.009078
vn 0.808644 -0.000133 0.588299
vn 0.808644 -0.000133 0.588299
vn -0.004982 -0.999938 -0.010001
vn -0.004982 -0.999938 -0.010001
vn -0.111311 -0.993786 0.000000
vn -0.111311 -0.993786 0.000000
vn -0.111311 -0.993786 0.000000
vn -0.111311 -0.993786 0.000000
vn 0.040868 0.000000 0.999165
vn 0.040868 0.000000 0.999165
vn 0.040868 0.000000 0.999165
vn 0.040868 0.000000 0.999165
vn 0.082172 0.000000 -0.996618
vn 0.082172 0.000000 -0.996618
vn 0.082172 0.000000 -0.996618
vn 0.082172 0.000000 -0.996618
vn -0.036726 0.999325 0.000000
vn -0.036726 0.999325 0.000000
vn -0.036726 0.999325 0.000000
vn -0.036726 0.999325 0.000000
s off
g pPlane2
usemtl initialShadingGroup
f 1/1/1 3/3/2 4/4/3 2/2/4
f 18/5/5 17/6/6 19/7/7 20/8/8
s 1
f 37/9/9 38/10/10 5/11/11 6/12/12
f 38/10/10 39/13/13 7/14/14 5/11/11
f 39/13/13 40/15/15 8/16/16 7/14/14
f 40/15/15 37/9/9 6/12/12 8/16/16
s off
f 6/17/17 5/18/18 9/19/19 10/20/20
f 5/18/21 7/21/22 11/22/23 9/19/24
f 7/21/25 8/23/26 12/24/27 11/22/28
f 8/23/29 6/17/30 10/20/31 12/24/32
s 2
f 10/20/33 9/19/34 13/25/35 14/26/36
f 9/19/34 11/22/37 15/27/38 13/25/35
f 11/22/37 12/24/39 16/28/40 15/27/38
f 12/24/39 10/20/33 14/26/36 16/28/40
s off
f 14/29/41 13/30/42 17/6/43 18/31/44
f 13/30/45 15/32/46 19/7/47 17/6/48
f 15/32/49 16/33/50 20/8/51 19/7/52
f 26/34/53 25/35/54 27/36/55 28/37/56
s 3
f 16/38/57 14/39/58 21/40/59 22/41/60
f 14/39/58 18/5/61 23/42/62 21/40/59
f 18/5/61 20/8/63 24/43/64 23/42/62
f 20/8/63 16/38/57 22/41/60 24/43/64
s 4
f 32/44/65 29/45/66 33/46/67 34/47/68
s 5
f 29/45/69 30/48/70 36/49/71 33/46/72
s 6
f 30/50/73 31/51/74 35/52/75 36/53/76
s 7
f 31/54/77 32/44/78 34/47/79 35/55/80
s 5
f 21/56/81 23/57/82 30/48/70 29/45/69
s 6
f 23/42/83 24/43/84 31/51/74 30/50/73
s 7
f 24/58/85 22/59/86 32/44/78 31/54/77
s 4
f 22/59/87 21/56/88 29/45/66 32/44/65
f 34/47/68 33/46/67 25/60/89 26/61/90
s 7
f 35/55/80 34/47/79 26/61/91 28/62/92
s 6
f 36/53/76 35/52/75 28/37/93 27/36/94
s 5
f 33/46/72 36/49/71 27/63/95 25/60/96
s off
f 2/64/97 38/67/98 37/66/99 1/65/100
f 1/68/101 37/71/102 40/70/103 3/69/104
f 4/72/105 39/75/106 38/74/107 2/73/108
f 3/76/109 40/79/110 39/78/111 4/77/112
g default
v -4.205134 0.000849 11.320592
v -3.942890 0.000849 11.320592
v -4.205134 4.747409 11.320592
v -3.942890 4.747409 11.320592
v -4.205134 4.747409 8.458422
v -3.942890 4.747409 8.458422
v -4.205134 0.000849 8.458422
v -3.942890 0.000849 8.458422
v -3.942890 0.133687 9.158092
v -3.942890 0.133687 10.620923
v -3.942890 3.646093 9.158092
v -3.942890 3.646093 10.620923
v -3.876567 0.133687 9.158092
v -3.876567 0.133687 10.620923
v -3.876567 3.646093 9.158092
v -3.876567 3.646093 10.620923
v -3.876567 0.154467 9.243424
v -3.876567 0.154467 10.535591
v -3.876567 3.511754 9.243424
v -3.876567 3.511754 10.535591
v -4.208959 0.154467 9.243424
v -4.208959 0.154467 10.535591
v -4.208959 3.511754 9.243424
v -4.208959 3.511754 10.535591
vt 1.337874 0.541646
vt 1.348569 0.671925
vt 1.223501 0.708661
vt 1.182653 0.558999
vt 1.062985 0.592428
vt 1.010827 0.477210
vt 1.157318 0.410734
vt 1.118973 0.296315
vt 1.232687 0.234447
vt 1.318440 0.375201
vt 1.459452 0.365537
vt 1.483771 0.514492
vt 1.467518 0.404217
vt 1.481597 0.477804
vt 1.593744 0.341188
vt 1.566403 0.381387
vt 1.627675 0.472865
vt 1.584366 0.451081
vt 1.259681 0.463719
vt 1.277977 0.470733
vt 1.284994 0.470132
vt 1.267043 0.473068
vt 1.278887 0.461179
vt 1.274000 0.453705
vt 1.267150 0.458984
vt 1.258739 0.463946
vt 1.285488 0.470676
vt 1.268385 0.474852
vt 1.273036 0.452065
vt 1.257106 0.462220
vt 1.319973 0.421284
vt 1.328158 0.498769
vt 1.203274 0.438036
vt 1.212277 0.515236
vn 0.000000 0.000000 1.000000
vn 0.000000 0.000000 1.000000
vn 0.000000 0.000000 1.000000
vn 0.000000 0.000000 1.000000
vn 0.000000 1.000000 0.000000
vn 0.000000 1.000000 0.000000
vn 0.000000 1.000000 0.000000
vn 0.000000 1.000000 0.000000
vn 0.000000 0.000000 -1.000000
vn 0.000000 0.000000 -1.000000
vn 0.000000 0.000000 -1.000000
vn 0.000000 0.000000 -1.000000
vn 0.000000 -1.000000 0.000000
vn 0.000000 -1.000000 0.000000
vn 0.000000 -1.000000 0.000000
vn 0.000000 -1.000000 0.000000
vn 1.000000 0.000000 0.000000
vn 1.000000 0.000000 0.000000
vn 1.000000 0.000000 0.000000
vn 1.000000 0.000000 0.000000
vn 1.000000 0.000000 0.000000
vn 1.000000 0.000000 0.000000
vn 1.000000 0.000000 0.000000
vn 1.000000 0.000000 0.000000
vn 0.000000 -1.000000 0.000000
vn 0.000000 -1.000000 0.000000
vn 0.000000 -1.000000 0.000000
vn 0.000000 -1.000000 0.000000
vn 0.000000 0.000000 -1.000000
vn 0.000000 0.000000 -1.000000
vn 0.000000 0.000000 -1.000000
vn 0.000000 0.000000 -1.000000
vn 0.000000 1.000000 0.000000
vn 0.000000 1.000000 0.000000
vn 0.000000 1.000000 0.000000
vn 0.000000 1.000000 0.000000
vn 0.000000 0.000000 1.000000
vn 0.000000 0.000000 1.000000
vn 0.000000 0.000000 1.000000
vn 0.000000 0.000000 1.000000
vn 1.000000 0.000000 0.000000
vn 1.000000 0.000000 0.000000
vn 1.000000 0.000000 0.000000
vn 1.000000 0.000000 0.000000
vn 1.000000 0.000000 0.000000
vn 1.000000 0.000000 0.000000
vn 1.000000 0.000000 0.000000
vn 1.000000 0.000000 0.000000
vn 0.000000 1.000000 0.000000
vn 0.000000 1.000000 0.000000
vn 0.000000 1.000000 0.000000
vn 0.000000 1.000000 0.000000
vn 0.000000 0.000000 1.000000
vn 0.000000 0.000000 1.000000
vn 0.000000 0.000000 1.000000
vn 0.000000 0.000000 1.000000
vn 0.000000 -1.000000 0.000000
vn 0.000000 -1.000000 0.000000
vn 0.000000 -1.000000 0.000000
vn 0.000000 -1.000000 0.000000
vn 0.000000 0.000000 -1.000000
vn 0.000000 0.000000 -1.000000
vn 0.000000 0.000000 -1.000000
vn 0.000000 0.000000 -1.000000
vn -0.999995 0.003096 0.000000
vn -0.999995 0.003096 0.000000
vn -0.999995 0.003096 0.000000
vn -0.999995 0.003096 0.000000
vn -0.999988 0.000000 -0.004873
vn -0.999988 0.000000 -0.004873
vn -0.999988 0.000000 -0.004873
vn -0.999988 0.000000 -0.004873
vn -0.999988 0.000000 0.004873
vn -0.999988 0.000000 0.004873
vn -0.999988 0.000000 0.004873
vn -0.999988 0.000000 0.004873
vn -0.999690 -0.024895 0.000000
vn -0.999690 -0.024895 0.000000
vn -0.999690 -0.024895 0.000000
vn -0.999690 -0.024895 0.000000
s off
g polySurface1 pCube12
usemtl initialShadingGroup
f 41/80/113 42/81/114 44/82/115 43/83/116
f 43/83/117 44/84/118 46/85/119 45/86/120
f 45/86/121 46/87/122 48/88/123 47/89/124
f 47/89/125 48/90/126 42/91/127 41/80/128
s 1
f 42/91/129 48/90/130 49/92/131 50/93/132
f 48/90/130 46/94/133 51/95/134 49/92/131
f 46/94/133 44/96/135 52/97/136 51/95/134
f 44/96/135 42/91/129 50/93/132 52/97/136
s off
f 50/98/137 49/99/138 53/100/139 54/101/140
f 49/99/141 51/102/142 55/103/143 53/100/144
f 51/102/145 52/104/146 56/105/147 55/103/148
f 52/104/149 50/98/150 54/101/151 56/105/152
s 2
f 54/101/153 53/100/154 57/106/155 58/107/156
f 53/100/154 55/103/157 59/108/158 57/106/155
f 55/103/157 56/105/159 60/109/160 59/108/158
f 56/105/159 54/101/153 58/107/156 60/109/160
s off
f 58/107/161 57/106/162 61/110/163 62/111/164
f 57/106/165 59/108/166 63/112/167 61/110/168
f 59/108/169 60/109/170 64/113/171 63/112/172
f 60/109/173 58/107/174 62/111/175 64/113/176
f 43/83/177 45/86/178 63/112/179 64/113/180
f 45/86/181 47/89/182 61/110/183 63/112/184
f 41/80/185 43/83/186 64/113/187 62/111/188
f 47/89/189 41/80/190 62/111/191 61/110/192
