# This file uses centimeters as units for non-parametric coordinates.

mtllib TJ_hallway_lockers.mtl
g default
v -3.844244 0.124987 -6.863823
v -3.080857 0.124987 -6.863823
v -3.844244 3.726932 -6.863823
v -3.080857 3.236108 -6.863823
v -3.844244 3.726932 -12.462495
v -3.080857 3.236108 -12.462495
v -3.844244 0.124987 -12.462495
v -3.080857 0.124987 -12.462495
vt 0.392966 0.701388
vt 0.392966 0.507463
vt 0.600851 0.507463
vt 0.808601 0.507463
vt 0.600851 0.283046
vt 0.600851 0.075161
vt 0.392966 0.283046
vt 0.184946 0.283046
vt 0.392966 0.075161
vt 0.392966 0.942069
vt 0.184946 0.507463
vt 0.808601 0.283046
vt 0.600851 0.942069
vt 0.600851 0.701388
vn 0.540816 0.841141 0.000000
vn 0.540816 0.841141 0.000000
vn 0.540816 0.841141 0.000000
vn 0.540816 0.841141 0.000000
vn -0.000000 0.000000 -1.000000
vn -0.000000 0.000000 -1.000000
vn -0.000000 0.000000 -1.000000
vn -0.000000 0.000000 -1.000000
vn 0.000000 -1.000000 0.000000
vn 0.000000 -1.000000 0.000000
vn 0.000000 -1.000000 0.000000
vn 0.000000 -1.000000 0.000000
vn 1.000000 0.000000 0.000000
vn 1.000000 0.000000 0.000000
vn 1.000000 0.000000 0.000000
vn 1.000000 0.000000 0.000000
vn 0.000000 0.000000 1.000000
vn 0.000000 0.000000 1.000000
vn 0.000000 0.000000 1.000000
vn 0.000000 0.000000 1.000000
vn -1.000000 0.000000 0.000000
vn -1.000000 0.000000 0.000000
vn -1.000000 0.000000 0.000000
vn -1.000000 0.000000 0.000000
s off
g pCube27
usemtl initialShadingGroup
f 3/1/1 4/2/2 6/3/3 5/14/4
f 5/4/5 6/3/6 8/5/7 7/12/8
f 7/6/9 8/5/10 2/7/11 1/9/12
f 2/7/13 8/5/14 6/3/15 4/2/16
f 1/8/17 2/7/18 4/2/19 3/11/20
f 3/1/21 5/14/22 7/13/23 1/10/24
g default
v -3.844244 0.124987 7.369274
v -3.080857 0.124987 7.369274
v -3.844244 3.726932 7.369274
v -3.080857 3.236108 7.369274
v -3.844244 3.726932 -0.674063
v -3.080857 3.236108 -0.674063
v -3.844244 0.124987 -0.674063
v -3.080857 0.124987 -0.674063
vt 0.392966 0.701388
vt 0.392966 0.507463
vt 0.600851 0.507463
vt 0.808601 0.507463
vt 0.600851 0.283046
vt 0.600851 0.075161
vt 0.392966 0.283046
vt 0.184946 0.283046
vt 0.392966 0.075161
vt 0.392966 0.942069
vt 0.184946 0.507463
vt 0.808601 0.283046
vt 0.600851 0.942069
vt 0.600851 0.701388
vn 0.540816 0.841141 0.000000
vn 0.540816 0.841141 0.000000
vn 0.540816 0.841141 0.000000
vn 0.540816 0.841141 0.000000
vn -0.000001 0.000000 -1.000000
vn -0.000001 0.000000 -1.000000
vn -0.000001 0.000000 -1.000000
vn -0.000001 0.000000 -1.000000
vn 0.000000 -1.000000 0.000000
vn 0.000000 -1.000000 0.000000
vn 0.000000 -1.000000 0.000000
vn 0.000000 -1.000000 0.000000
vn 1.000000 0.000000 0.000000
vn 1.000000 0.000000 0.000000
vn 1.000000 0.000000 0.000000
vn 1.000000 0.000000 0.000000
vn 0.000000 0.000000 1.000000
vn 0.000000 0.000000 1.000000
vn 0.000000 0.000000 1.000000
vn 0.000000 0.000000 1.000000
vn -1.000000 0.000000 0.000000
vn -1.000000 0.000000 0.000000
vn -1.000000 0.000000 0.000000
vn -1.000000 0.000000 0.000000
s off
g pCube3
usemtl initialShadingGroup
f 11/15/25 12/16/26 14/17/27 13/28/28
f 13/18/29 14/17/30 16/19/31 15/26/32
f 15/20/33 16/19/34 10/21/35 9/23/36
f 10/21/37 16/19/38 14/17/39 12/16/40
f 9/22/41 10/21/42 12/16/43 11/25/44
f 11/15/45 13/28/46 15/27/47 9/24/48
g default
v 4.032619 0.124987 8.831576
v 3.269232 0.124987 8.831576
v 4.032619 3.726932 8.831576
v 3.269232 3.236108 8.831576
v 4.032619 3.726932 12.546498
v 3.269232 3.236108 12.546498
v 4.032619 0.124987 12.546498
v 3.269232 0.124987 12.546498
vt 0.392966 0.701388
vt 0.392966 0.507463
vt 0.600851 0.507463
vt 0.808601 0.507463
vt 0.600851 0.283046
vt 0.600851 0.075161
vt 0.392966 0.283046
vt 0.184946 0.283046
vt 0.392966 0.075161
vt 0.392966 0.942069
vt 0.184946 0.507463
vt 0.808601 0.283046
vt 0.600851 0.942069
vt 0.600851 0.701388
vn -0.540816 0.841141 -0.000000
vn -0.540816 0.841141 -0.000000
vn -0.540816 0.841141 -0.000000
vn -0.540816 0.841141 -0.000000
vn 0.000000 0.000000 1.000000
vn 0.000000 0.000000 1.000000
vn 0.000000 0.000000 1.000000
vn 0.000000 0.000000 1.000000
vn 0.000000 -1.000000 0.000000
vn 0.000000 -1.000000 0.000000
vn 0.000000 -1.000000 0.000000
vn 0.000000 -1.000000 0.000000
vn -1.000000 0.000000 -0.000000
vn -1.000000 0.000000 -0.000000
vn -1.000000 0.000000 -0.000000
vn -1.000000 0.000000 -0.000000
vn 0.000000 0.000000 -1.000000
vn 0.000000 0.000000 -1.000000
vn 0.000000 0.000000 -1.000000
vn 0.000000 0.000000 -1.000000
vn 1.000000 0.000000 0.000000
vn 1.000000 0.000000 0.000000
vn 1.000000 0.000000 0.000000
vn 1.000000 0.000000 0.000000
s off
g pCube40
usemtl initialShadingGroup
f 19/29/49 20/30/50 22/31/51 21/42/52
f 21/32/53 22/31/54 24/33/55 23/40/56
f 23/34/57 24/33/58 18/35/59 17/37/60
f 18/35/61 24/33/62 22/31/63 20/30/64
f 17/36/65 18/35/66 20/30/67 19/39/68
f 19/29/69 21/42/70 23/41/71 17/38/72
g default
v 4.032619 0.124987 -6.924323
v 3.269232 0.124987 -6.924323
v 4.032619 3.726932 -6.924323
v 3.269232 3.236108 -6.924323
v 4.032619 3.726932 1.685398
v 3.269232 3.236108 1.685398
v 4.032619 0.124987 1.685398
v 3.269232 0.124987 1.685398
vt 0.392966 0.701388
vt 0.392966 0.507463
vt 0.600851 0.507463
vt 0.808601 0.507463
vt 0.600851 0.283046
vt 0.600851 0.075161
vt 0.392966 0.283046
vt 0.184946 0.283046
vt 0.392966 0.075161
vt 0.392966 0.942069
vt 0.184946 0.507463
vt 0.808601 0.283046
vt 0.600851 0.942069
vt 0.600851 0.701388
vn -0.540816 0.841141 -0.000000
vn -0.540816 0.841141 -0.000000
vn -0.540816 0.841141 -0.000000
vn -0.540816 0.841141 -0.000000
vn 0.000001 0.000000 1.000000
vn 0.000001 0.000000 1.000000
vn 0.000001 0.000000 1.000000
vn 0.000001 0.000000 1.000000
vn 0.000000 -1.000000 0.000000
vn 0.000000 -1.000000 0.000000
vn 0.000000 -1.000000 0.000000
vn 0.000000 -1.000000 0.000000
vn -1.000000 0.000000 -0.000000
vn -1.000000 0.000000 -0.000000
vn -1.000000 0.000000 -0.000000
vn -1.000000 0.000000 -0.000000
vn 0.000000 0.000000 -1.000000
vn 0.000000 0.000000 -1.000000
vn 0.000000 0.000000 -1.000000
vn 0.000000 0.000000 -1.000000
vn 1.000000 0.000000 0.000000
vn 1.000000 0.000000 0.000000
vn 1.000000 0.000000 0.000000
vn 1.000000 0.000000 0.000000
s off
g pCube41
usemtl initialShadingGroup
f 27/43/73 28/44/74 30/45/75 29/56/76
f 29/46/77 30/45/78 32/47/79 31/54/80
f 31/48/81 32/47/82 26/49/83 25/51/84
f 26/49/85 32/47/86 30/45/87 28/44/88
f 25/50/89 26/49/90 28/44/91 27/53/92
f 27/43/93 29/56/94 31/55/95 25/52/96
