# This file uses centimeters as units for non-parametric coordinates.

mtllib TJ_hallway_floors.mtl
g default
v -4.039832 -0.129710 12.594301
v 4.039832 -0.129710 12.594301
v -4.039832 0.129710 12.594301
v 4.039832 0.129710 12.594301
v -4.039832 0.129710 -12.594301
v 4.039832 0.129710 -12.594301
v -4.039832 -0.129710 -12.594301
v 4.039832 -0.129710 -12.594301
vt 0.527013 0.844357
vt 0.308609 0.398433
vt 0.530659 0.400256
vt 0.528836 0.622306
vt 0.750886 0.624130
vt 0.752710 0.402079
vt 0.754533 0.180029
vt 0.084736 0.618660
vt 0.974760 0.403903
vt 0.086559 0.396609
vt 0.532483 0.178206
vt 0.972937 0.625953
vt 0.749063 0.846180
vt 0.306786 0.620483
vn 0.000000 0.000000 1.000000
vn 0.000000 0.000000 1.000000
vn 0.000000 0.000000 1.000000
vn 0.000000 0.000000 1.000000
vn 0.000000 0.000000 -1.000000
vn 0.000000 0.000000 -1.000000
vn 0.000000 0.000000 -1.000000
vn 0.000000 0.000000 -1.000000
vn 0.000000 -1.000000 0.000000
vn 0.000000 -1.000000 0.000000
vn 0.000000 -1.000000 0.000000
vn 0.000000 -1.000000 0.000000
vn 1.000000 0.000000 0.000000
vn 1.000000 0.000000 0.000000
vn 1.000000 0.000000 0.000000
vn 1.000000 0.000000 0.000000
vn -1.000000 0.000000 0.000000
vn -1.000000 0.000000 0.000000
vn -1.000000 0.000000 0.000000
vn -1.000000 0.000000 0.000000
vn 0.000000 1.000000 0.000000
vn 0.000000 1.000000 0.000000
vn 0.000000 1.000000 0.000000
vn 0.000000 1.000000 0.000000
s off
g pCube1
usemtl initialShadingGroup
f 1/14/1 2/2/2 4/3/3 3/4/4
f 5/5/5 6/6/6 8/9/7 7/12/8
f 7/8/9 8/10/10 2/2/11 1/14/12
f 2/11/13 8/7/14 6/6/15 4/3/16
f 7/13/17 1/1/18 3/4/19 5/5/20
f 3/4/21 4/3/22 6/6/23 5/5/24
g default
v -8.829687 -0.129710 12.200281
v -4.133376 -0.129710 12.200281
v -8.829687 0.129710 12.200281
v -4.133376 0.129710 12.200281
v -8.829687 0.129710 8.039210
v -4.133376 0.129710 8.039210
v -8.829687 -0.129710 8.039210
v -4.133376 -0.129710 8.039210
vt 0.527013 0.844357
vt 0.308609 0.398433
vt 0.530659 0.400256
vt 0.528836 0.622306
vt 0.750886 0.624130
vt 0.752710 0.402079
vt 0.754533 0.180029
vt 0.084736 0.618660
vt 0.974760 0.403903
vt 0.086559 0.396609
vt 0.532483 0.178206
vt 0.972937 0.625953
vt 0.749063 0.846180
vt 0.306786 0.620483
vn 0.000000 0.000000 1.000000
vn 0.000000 0.000000 1.000000
vn 0.000000 0.000000 1.000000
vn 0.000000 0.000000 1.000000
vn 0.000000 0.000000 -1.000000
vn 0.000000 0.000000 -1.000000
vn 0.000000 0.000000 -1.000000
vn 0.000000 0.000000 -1.000000
vn 0.000000 -1.000000 0.000000
vn 0.000000 -1.000000 0.000000
vn 0.000000 -1.000000 0.000000
vn 0.000000 -1.000000 0.000000
vn 1.000000 0.000000 0.000000
vn 1.000000 0.000000 0.000000
vn 1.000000 0.000000 0.000000
vn 1.000000 0.000000 0.000000
vn -1.000000 0.000000 0.000000
vn -1.000000 0.000000 0.000000
vn -1.000000 0.000000 0.000000
vn -1.000000 0.000000 0.000000
vn 0.000000 1.000000 0.000000
vn 0.000000 1.000000 0.000000
vn 0.000000 1.000000 0.000000
vn 0.000000 1.000000 0.000000
s off
g pCube30
usemtl initialShadingGroup
f 9/28/25 10/16/26 12/17/27 11/18/28
f 13/19/29 14/20/30 16/23/31 15/26/32
f 15/22/33 16/24/34 10/16/35 9/28/36
f 10/25/37 16/21/38 14/20/39 12/17/40
f 15/27/41 9/15/42 11/18/43 13/19/44
f 11/18/45 12/17/46 14/20/47 13/19/48
